# xmcd CD database file generated by Grip 2.96
# 
# Track frame offsets:
#       150
#       24087
#       42100
#       56487
#       76920
#       97180
#       110450
#       135325
#       165715
# 
# Disc length: 2505 seconds
# 
# Revision: 0
# Processed by: cddbd v1.4PL0 Copyright (c) Steve Scherf et al.
# Submitted via: Grip 2.96
# 
DISCID=6409c709
DTITLE=Clarence Gatemouth Brown - Pressure Cooker
DYEAR=1900
DGENRE=
TTITLE0=She winked her eye
TTITLE1=Slow down
TTITLE2=Just lippin'
TTITLE3=My time is expensive
TTITLE4=Ain't nobody here but us chickens
TTITLE5=Pressure cooker
TTITLE6=Ain't that just like a woman
TTITLE7=Deep, deep water
TTITLE8=Cold strings
EXTD=
EXTT0=
EXTT1=
EXTT2=
EXTT3=
EXTT4=
EXTT5=
EXTT6=
EXTT7=
EXTT8=
PLAYORDER=
